# 3ds Max Wavefront OBJ Exporter v0.97b - (c)2007 guruware
# File Created: 22.02.2016 10:45:16

mtllib Katana.mtl

#
# object Katana
#

v  19.0024 2.0237 -0.0000
v  33.3535 1.5050 -0.0000
v  33.5269 5.4166 0.0000
v  19.1380 5.8019 0.0000
v  33.5214 6.8769 -0.3376
v  19.1827 7.3446 -0.3376
v  36.5247 1.4677 -0.0000
v  36.5483 5.3534 0.0000
v  36.4175 6.7466 -0.3376
v  4.7288 6.1552 0.0000
v  4.5812 2.3769 -0.0000
v  4.8031 7.7372 -0.3376
v  -9.8202 6.0906 0.0000
v  -9.9509 2.3769 -0.0000
v  -9.7797 7.5870 -0.3376
v  -24.3810 5.7737 0.0000
v  -24.7003 2.0600 -0.0000
v  -24.2576 7.2700 -0.3376
v  -39.2688 5.2412 0.0000
v  -39.4427 1.5276 -0.0000
v  -39.1750 6.5874 -0.3376
v  -54.1540 4.4682 0.0000
v  -54.3327 0.8750 -0.0000
v  -54.0650 5.9349 -0.3376
v  -69.0305 3.3102 0.0000
v  -69.3061 -0.2216 -0.0000
v  -68.9631 4.7708 -0.3376
v  -84.2745 1.6540 0.0000
v  -84.5499 -1.8778 -0.0000
v  -84.2111 3.1146 -0.3376
v  -85.8368 1.0303 0.0000
v  -86.0382 -2.0512 -0.0000
v  -85.7734 2.5777 -0.3376
v  -87.4721 0.2326 0.0000
v  -87.5257 -2.3017 -0.0000
v  -89.0891 -0.6468 0.0000
v  -89.1637 -2.5766 -0.0000
v  -90.6438 -1.3504 -0.3376
v  -91.0527 -3.0359 -0.3376
v  -89.0039 0.6935 -0.3376
v  -90.0555 -0.2718 -0.3376
v  -87.4781 1.7408 -0.3376
v  19.0024 2.0237 -0.6752
v  19.1380 5.8019 -0.6752
v  33.5269 5.4166 -0.6752
v  33.3535 1.5050 -0.6752
v  36.5482 5.3534 -0.6752
v  36.5247 1.4677 -0.6752
v  4.5812 2.3769 -0.6752
v  4.7288 6.1552 -0.6752
v  -9.9509 2.3769 -0.6752
v  -9.8202 6.0906 -0.6752
v  -24.7003 2.0600 -0.6752
v  -24.3810 5.7737 -0.6752
v  -39.4427 1.5276 -0.6752
v  -39.2688 5.2412 -0.6752
v  -54.3327 0.8750 -0.6752
v  -54.1540 4.4682 -0.6752
v  -69.3061 -0.2216 -0.6752
v  -69.0305 3.3102 -0.6752
v  -84.5499 -1.8778 -0.6752
v  -84.2745 1.6540 -0.6752
v  -86.0382 -2.0512 -0.6752
v  -85.8368 1.0303 -0.6752
v  -87.5257 -2.3017 -0.6752
v  -87.4721 0.2326 -0.6752
v  -89.1637 -2.5766 -0.6752
v  -89.0891 -0.6468 -0.6752
v  82.3744 -1.5037 0.5662
v  84.7268 -1.6121 0.5662
v  84.7268 2.4274 0.5662
v  82.4788 2.5945 0.5662
v  70.2537 3.5267 0.5662
v  70.0920 -0.4384 0.5662
v  59.5257 4.2923 0.5662
v  59.2873 0.3707 0.5662
v  48.6236 5.1911 0.5662
v  48.4623 1.1222 0.5662
v  36.2422 5.8997 0.5662
v  36.2422 1.9150 0.5662
v  84.3725 3.2873 -0.3439
v  81.7969 3.4268 -0.3439
v  69.9260 4.2969 -0.3439
v  59.3671 5.0889 -0.3439
v  48.4203 5.9605 -0.3439
v  36.2422 6.8452 -0.3439
v  81.8502 -2.3246 -0.3439
v  84.3725 -2.5792 -0.3439
v  69.5751 -1.1980 -0.3439
v  58.9437 -0.3514 -0.3439
v  48.1695 0.4582 -0.3439
v  36.2422 1.0745 -0.3439
v  82.3744 -1.5037 -1.2540
v  82.4788 2.5945 -1.2540
v  84.7268 2.4274 -1.2540
v  84.7268 -1.6121 -1.2540
v  70.0920 -0.4384 -1.2540
v  70.2537 3.5267 -1.2540
v  59.2873 0.3707 -1.2540
v  59.5257 4.2923 -1.2540
v  48.4623 1.1222 -1.2540
v  48.6236 5.1911 -1.2540
v  36.2422 1.9150 -1.2540
v  36.2422 5.8997 -1.2540
v  35.9715 4.5365 1.8392
v  36.6402 4.5365 1.8392
v  36.6402 8.9232 1.3038
v  35.9715 8.9232 1.3038
v  35.9715 -0.0799 1.3038
v  36.6402 -0.0799 1.3038
v  36.6402 10.8796 -0.3439
v  35.9715 10.8796 -0.3439
v  35.9715 -2.6954 -0.3439
v  36.6402 -2.6954 -0.3439
v  35.9715 8.9232 -0.3439
v  35.9715 4.5365 -0.3439
v  35.9715 -0.0842 -0.3439
v  36.6402 8.9232 -0.3439
v  36.6402 4.5339 -0.3439
v  36.6402 -0.0850 -0.3439
v  35.9715 4.5365 -2.5271
v  35.9715 8.9232 -1.9916
v  36.6402 8.9232 -1.9916
v  36.6402 4.5365 -2.5271
v  36.6402 -0.0799 -1.9916
v  35.9715 -0.0799 -1.9916
# 126 vertices

vn -0.0000 -0.0000 1.0000
vn 0.0065 0.2193 0.9756
vn 0.0075 0.2306 0.9730
vn 0.0055 0.2110 0.9775
vn 0.0000 -0.0000 1.0000
vn -0.0016 0.2143 0.9768
vn -0.0048 0.2203 0.9754
vn -0.0094 0.2318 0.9727
vn -0.0112 0.2341 0.9721
vn -0.0176 0.2256 0.9741
vn -0.0246 0.2262 0.9738
vn -0.0823 0.2216 0.9717
vn -0.2011 0.0269 0.9792
vn -0.2521 0.2023 0.9463
vn -0.1422 0.2320 0.9622
vn -0.1059 0.2165 0.9705
vn -0.0000 -0.0000 -1.0000
vn 0.0065 0.2193 -0.9756
vn 0.0075 0.2306 -0.9730
vn 0.0055 0.2110 -0.9775
vn 0.0000 -0.0000 -1.0000
vn -0.0016 0.2143 -0.9768
vn -0.0048 0.2203 -0.9754
vn -0.0094 0.2318 -0.9727
vn -0.0112 0.2341 -0.9721
vn -0.0176 0.2256 -0.9741
vn -0.0246 0.2262 -0.9738
vn -0.0823 0.2216 -0.9717
vn -0.2011 0.0269 -0.9792
vn 0.0000 0.0000 -1.0000
vn -0.3124 0.2507 -0.9163
vn -0.1422 0.2320 -0.9622
vn -0.1059 0.2165 -0.9705
vn -0.0118 -0.9999 -0.0000
vn -0.0361 -0.9993 -0.0000
vn -0.0245 -0.9997 -0.0000
vn 0.0000 -1.0000 -0.0000
vn 0.0215 -0.9998 -0.0000
vn 0.0361 -0.9993 -0.0000
vn 0.0438 -0.9990 -0.0000
vn 0.0730 -0.9973 -0.0000
vn 0.1080 -0.9941 -0.0000
vn 0.1157 -0.9933 -0.0000
vn 0.1661 -0.9861 -0.0000
vn 0.1655 -0.9862 -0.0000
vn 0.2363 -0.9717 -0.0000
vn 0.0474 0.7449 0.6655
vn 0.0572 0.7649 0.6416
vn 0.0559 0.7640 0.6427
vn 0.0618 0.7627 0.6438
vn 0.0473 0.7297 0.6821
vn -0.0521 -0.6998 0.7125
vn -0.0656 -0.7346 0.6753
vn -0.0587 -0.7604 0.6468
vn -0.0567 -0.7847 0.6173
vn -0.0447 -0.7665 0.6407
vn 0.9319 0.0000 -0.3627
vn -1.0000 0.0000 -0.0000
vn -0.0000 0.0000 -1.0000
vn 0.0474 0.7449 -0.6655
vn 0.0572 0.7649 -0.6416
vn 0.0559 0.7640 -0.6427
vn 0.0618 0.7627 -0.6438
vn 0.0473 0.7297 -0.6821
vn -0.0521 -0.6998 -0.7125
vn -0.0656 -0.7346 -0.6753
vn -0.0587 -0.7604 -0.6468
vn -0.0567 -0.7847 -0.6173
vn -0.0447 -0.7665 -0.6407
vn 0.9319 -0.0000 0.3627
vn 0.0000 0.1212 0.9926
vn 0.0000 -0.1152 0.9933
vn 0.0000 0.6442 0.7649
vn 0.0000 -0.5330 0.8461
vn 1.0000 0.0000 -0.0000
vn 0.0000 0.1212 -0.9926
vn 0.0000 -0.1152 -0.9933
vn 0.0000 0.6442 -0.7649
vn 0.0000 -0.5330 -0.8461
# 79 vertex normals

vt 0.8530 0.5656 0.0000
vt 0.9622 0.5605 0.0000
vt 0.9635 0.5983 0.0000
vt 0.8540 0.6021 0.0000
vt 0.9635 0.6128 0.0000
vt 0.8544 0.6174 0.0000
vt 0.9863 0.5601 0.0000
vt 0.9865 0.5977 0.0000
vt 0.9855 0.6115 0.0000
vt 0.7444 0.6056 0.0000
vt 0.7433 0.5690 0.0000
vt 0.7450 0.6212 0.0000
vt 0.6337 0.6049 0.0000
vt 0.6328 0.5690 0.0000
vt 0.6340 0.6198 0.0000
vt 0.5230 0.6018 0.0000
vt 0.5205 0.5659 0.0000
vt 0.5239 0.6167 0.0000
vt 0.4097 0.5966 0.0000
vt 0.4084 0.5606 0.0000
vt 0.4104 0.6100 0.0000
vt 0.2965 0.5890 0.0000
vt 0.2951 0.5542 0.0000
vt 0.2971 0.6036 0.0000
vt 0.1833 0.5776 0.0000
vt 0.1812 0.5435 0.0000
vt 0.1838 0.5922 0.0000
vt 0.0674 0.5614 0.0000
vt 0.0653 0.5273 0.0000
vt 0.0677 0.5759 0.0000
vt 0.0555 0.5553 0.0000
vt 0.0540 0.5255 0.0000
vt 0.0558 0.5706 0.0000
vt 0.0431 0.5475 0.0000
vt 0.0428 0.5230 0.0000
vt 0.0310 0.5388 0.0000
vt 0.0304 0.5202 0.0000
vt 0.0189 0.5320 0.0000
vt 0.0158 0.5157 0.0000
vt 0.0311 0.5522 0.0000
vt 0.0233 0.5425 0.0000
vt 0.0428 0.5624 0.0000
vt 0.9880 0.4928 0.0000
vt 0.9643 0.4928 0.0000
vt 0.9643 0.4864 0.0000
vt 0.9880 0.4864 0.0000
vt 0.8568 0.4922 0.0000
vt 0.8569 0.4858 0.0000
vt 0.7489 0.4914 0.0000
vt 0.7490 0.4850 0.0000
vt 0.6402 0.4904 0.0000
vt 0.6402 0.4840 0.0000
vt 0.5298 0.4891 0.0000
vt 0.5299 0.4827 0.0000
vt 0.4195 0.4876 0.0000
vt 0.4195 0.4812 0.0000
vt 0.3080 0.4859 0.0000
vt 0.3081 0.4794 0.0000
vt 0.1957 0.4839 0.0000
vt 0.1957 0.4775 0.0000
vt 0.0810 0.4817 0.0000
vt 0.0811 0.4753 0.0000
vt 0.0698 0.4815 0.0000
vt 0.0698 0.4750 0.0000
vt 0.0585 0.4812 0.0000
vt 0.0586 0.4748 0.0000
vt 0.0461 0.4809 0.0000
vt 0.0461 0.4745 0.0000
vt 0.0316 0.4774 0.0000
vt 0.9337 0.3142 0.0000
vt 0.9762 0.3148 0.0000
vt 0.9718 0.4076 0.0000
vt 0.9310 0.4082 0.0000
vt 0.7091 0.4082 0.0000
vt 0.7105 0.3204 0.0000
vt 0.5135 0.4108 0.0000
vt 0.5142 0.3231 0.0000
vt 0.3171 0.4126 0.0000
vt 0.3177 0.3243 0.0000
vt 0.0913 0.4159 0.0000
vt 0.0959 0.3244 0.0000
vt 0.9709 0.4356 0.0000
vt 0.9177 0.4350 0.0000
vt 0.7024 0.4347 0.0000
vt 0.5098 0.4376 0.0000
vt 0.3126 0.4390 0.0000
vt 0.0902 0.4452 0.0000
vt 0.9251 0.2866 0.0000
vt 0.9773 0.2851 0.0000
vt 0.7019 0.2935 0.0000
vt 0.5088 0.2968 0.0000
vt 0.3132 0.2988 0.0000
vt 0.0969 0.2968 0.0000
vt 0.0370 0.4162 0.0000
vt 0.0254 0.4012 0.0000
vt 0.0259 0.3315 0.0000
vt 0.0378 0.3149 0.0000
vt 0.0565 0.4009 0.0000
vt 0.0438 0.4184 0.0000
vt 0.0444 0.3110 0.0000
vt 0.0569 0.3267 0.0000
vt 0.1530 0.6713 0.0000
vt 0.1529 0.6830 0.0000
vt 0.0755 0.6823 0.0000
vt 0.0756 0.6706 0.0000
vt 0.2344 0.6721 0.0000
vt 0.2343 0.6838 0.0000
vt 0.0344 0.6819 0.0000
vt 0.0344 0.6702 0.0000
vt 0.2856 0.6726 0.0000
vt 0.2855 0.6843 0.0000
vt 0.1589 0.7205 0.0000
vt 0.0959 0.7120 0.0000
vt 0.0960 0.6885 0.0000
vt 0.1592 0.6893 0.0000
vt 0.0679 0.6882 0.0000
vt 0.2256 0.6901 0.0000
vt 0.2254 0.7137 0.0000
vt 0.2632 0.6906 0.0000
vt 0.0981 0.6352 0.0000
vt 0.0980 0.6587 0.0000
vt 0.0698 0.6584 0.0000
vt 0.1613 0.6282 0.0000
vt 0.1611 0.6594 0.0000
vt 0.2276 0.6366 0.0000
vt 0.2276 0.6601 0.0000
vt 0.2651 0.6605 0.0000
# 127 texture coords

g Katana
usemtl 02___Default
s 1
f 1/1/1 2/2/1 3/3/1 4/4/1 
s off
f 4/4/2 3/3/2 5/5/2 6/6/2 
f 3/3/1 2/2/1 7/7/1 8/8/1 
f 5/5/3 3/3/3 8/8/3 9/9/3 
f 1/1/1 4/4/1 10/10/1 11/11/1 
f 4/4/4 6/6/4 12/12/4 10/10/4 
f 11/11/5 10/10/5 13/13/5 14/14/5 
f 10/10/6 12/12/6 15/15/6 13/13/6 
f 14/14/5 13/13/5 16/16/5 17/17/5 
f 13/13/7 15/15/7 18/18/7 16/16/7 
f 17/17/5 16/16/5 19/19/5 20/20/5 
f 16/16/8 18/18/8 21/21/8 19/19/8 
f 20/20/5 19/19/5 22/22/5 23/23/5 
f 19/19/9 21/21/9 24/24/9 22/22/9 
f 23/23/5 22/22/5 25/25/5 26/26/5 
f 22/22/10 24/24/10 27/27/10 25/25/10 
f 26/26/5 25/25/5 28/28/5 29/29/5 
f 25/25/11 27/27/11 30/30/11 28/28/11 
f 29/29/5 28/28/5 31/31/5 32/32/5 
f 28/28/12 30/30/12 33/33/12 31/31/12 
f 32/32/5 31/31/5 34/34/5 35/35/5 
f 35/35/5 34/34/5 36/36/5 37/37/5 
f 37/37/13 36/36/13 38/38/13 39/39/13 
f 38/38/14 36/36/14 40/40/14 41/41/14 
f 40/40/15 36/36/15 34/34/15 42/42/15 
f 42/42/16 34/34/16 31/31/16 33/33/16 
s 1
f 43/1/17 44/4/17 45/3/17 46/2/17 
s off
f 44/4/18 6/6/18 5/5/18 45/3/18 
f 45/3/17 47/8/17 48/7/17 46/2/17 
f 5/5/19 9/9/19 47/8/19 45/3/19 
f 43/1/17 49/11/17 50/10/17 44/4/17 
f 44/4/20 50/10/20 12/12/20 6/6/20 
f 49/11/21 51/14/21 52/13/21 50/10/21 
f 50/10/22 52/13/22 15/15/22 12/12/22 
f 51/14/21 53/17/21 54/16/21 52/13/21 
f 52/13/23 54/16/23 18/18/23 15/15/23 
f 53/17/21 55/20/21 56/19/21 54/16/21 
f 54/16/24 56/19/24 21/21/24 18/18/24 
f 55/20/21 57/23/21 58/22/21 56/19/21 
f 56/19/25 58/22/25 24/24/25 21/21/25 
f 57/23/21 59/26/21 60/25/21 58/22/21 
f 58/22/26 60/25/26 27/27/26 24/24/26 
f 59/26/21 61/29/21 62/28/21 60/25/21 
f 60/25/27 62/28/27 30/30/27 27/27/27 
f 61/29/21 63/32/21 64/31/21 62/28/21 
f 62/28/28 64/31/28 33/33/28 30/30/28 
f 63/32/21 65/35/21 66/34/21 64/31/21 
f 65/35/21 67/37/21 68/36/21 66/34/21 
f 67/37/29 39/39/29 38/38/29 68/36/29 
f 38/38/30 41/41/30 40/40/30 
f 40/40/31 68/36/31 38/38/31 
f 40/40/32 42/42/32 66/34/32 68/36/32 
f 42/42/33 33/33/33 64/31/33 66/34/33 
f 7/43/34 2/44/34 46/45/34 48/46/34 
f 2/44/35 1/47/35 43/48/35 46/45/35 
f 1/47/36 11/49/36 49/50/36 43/48/36 
f 11/49/37 14/51/37 51/52/37 49/50/37 
f 14/51/38 17/53/38 53/54/38 51/52/38 
f 17/53/39 20/55/39 55/56/39 53/54/39 
f 20/55/40 23/57/40 57/58/40 55/56/40 
f 23/57/41 26/59/41 59/60/41 57/58/41 
f 26/59/42 29/61/42 61/62/42 59/60/42 
f 29/61/43 32/63/43 63/64/43 61/62/43 
f 32/63/44 35/65/44 65/66/44 63/64/44 
f 35/65/45 37/67/45 67/68/45 65/66/45 
f 37/67/46 39/69/46 67/68/46 
s 1
f 69/70/1 70/71/1 71/72/1 72/73/1 
s off
f 69/70/1 72/73/1 73/74/1 74/75/1 
f 74/75/1 73/74/1 75/76/1 76/77/1 
f 76/77/1 75/76/1 77/78/1 78/79/1 
f 78/79/1 77/78/1 79/80/1 80/81/1 
f 72/73/47 71/72/47 81/82/47 82/83/47 
f 73/74/48 72/73/48 82/83/48 83/84/48 
f 75/76/49 73/74/49 83/84/49 84/85/49 
f 77/78/50 75/76/50 84/85/50 85/86/50 
f 79/80/51 77/78/51 85/86/51 86/87/51 
f 70/71/52 69/70/52 87/88/52 88/89/52 
f 69/70/53 74/75/53 89/90/53 87/88/53 
f 74/75/54 76/77/54 90/91/54 89/90/54 
f 76/77/55 78/79/55 91/92/55 90/91/55 
f 78/79/56 80/81/56 92/93/56 91/92/56 
f 81/94/57 71/95/57 70/96/57 88/97/57 
f 79/98/58 86/99/58 92/100/58 80/101/58 
s 1
f 93/70/59 94/73/17 95/72/17 96/71/59 
s off
f 93/70/17 97/75/17 98/74/17 94/73/17 
f 97/75/21 99/77/21 100/76/21 98/74/21 
f 99/77/17 101/79/17 102/78/17 100/76/17 
f 101/79/59 103/81/59 104/80/59 102/78/59 
f 94/73/60 82/83/60 81/82/60 95/72/60 
f 98/74/61 83/84/61 82/83/61 94/73/61 
f 100/76/62 84/85/62 83/84/62 98/74/62 
f 102/78/63 85/86/63 84/85/63 100/76/63 
f 104/80/64 86/87/64 85/86/64 102/78/64 
f 96/71/65 88/89/65 87/88/65 93/70/65 
f 93/70/66 87/88/66 89/90/66 97/75/66 
f 97/75/67 89/90/67 90/91/67 99/77/67 
f 99/77/68 90/91/68 91/92/68 101/79/68 
f 101/79/69 91/92/69 92/93/69 103/81/69 
f 81/94/70 88/97/70 96/96/70 95/95/70 
f 104/98/58 103/101/58 92/100/58 86/99/58 
s 1
f 105/102/71 106/103/71 107/104/71 108/105/71 
s off
f 106/103/72 105/102/72 109/106/72 110/107/72 
f 108/105/73 107/104/73 111/108/73 112/109/73 
f 110/107/74 109/106/74 113/110/74 114/111/74 
f 105/112/58 108/113/58 115/114/58 116/115/58 
f 115/114/58 108/113/58 112/116/58 
f 105/112/58 116/115/58 117/117/58 109/118/58 
f 117/117/58 113/119/58 109/118/58 
f 107/120/75 118/121/75 111/122/75 
f 118/121/75 107/120/75 106/123/75 119/124/75 
f 119/124/75 106/123/75 110/125/75 120/126/75 
f 120/126/75 110/125/75 114/127/75 
s 1
f 121/102/76 122/105/76 123/104/76 124/103/76 
s off
f 124/103/77 125/107/77 126/106/77 121/102/77 
f 122/105/78 112/109/78 111/108/78 123/104/78 
f 125/107/79 114/111/79 113/110/79 126/106/79 
f 121/112/58 116/115/58 115/114/58 122/113/58 
f 115/114/58 112/116/58 122/113/58 
f 121/112/58 126/118/58 117/117/58 116/115/58 
f 117/117/58 126/118/58 113/119/58 
f 123/120/75 111/122/75 118/121/75 
f 118/121/75 119/124/75 124/123/75 123/120/75 
f 119/124/75 120/126/75 125/125/75 124/123/75 
f 120/126/75 114/127/75 125/125/75 
# 113 polygons - 11 triangles

